<?xml version="1.0" encoding="UTF-8"?>
<svg width="18px" height="18px" viewBox="0 0 18 18" version="1.1" xmlns="http://www.w3.org/2000/svg" xmlns:xlink="http://www.w3.org/1999/xlink">
    <!-- Generator: Sketch 51.1 (57501) - http://www.bohemiancoding.com/sketch -->
    <title>icon_twitter</title>
    <desc>Created with Sketch.</desc>
    <defs></defs>
    <g id="Symbols" stroke="none" stroke-width="1" fill="none" fill-rule="evenodd">
        <g id="Menu-Global---Desktop-1" transform="translate(-1120.000000, -8.000000)" fill="#791097">
            <g id="Menu">
                <g id="Menu-Superior" transform="translate(548.000000, 5.000000)">
                    <g id="Social" transform="translate(514.000000, 3.000000)">
                        <g id="2" transform="translate(58.000000, 0.000000)">
                            <path d="M4,0 L14,0 C16.209139,-4.05812251e-16 18,1.790861 18,4 L18,14 C18,16.209139 16.209139,18 14,18 L4,18 C1.790861,18 2.705415e-16,16.209139 0,14 L0,4 C-2.705415e-16,1.790861 1.790861,4.05812251e-16 4,0 Z M14.7272727,5.97437068 C14.3058333,6.15514543 13.8532311,6.27709665 13.3776278,6.33233338 C13.8628767,6.05112821 14.236088,5.60564758 14.4111932,5.0748011 C13.957107,5.33520282 13.4540508,5.52458589 12.9190898,5.62645102 C12.4902307,5.18455719 11.8795887,4.90909091 11.2036533,4.90909091 C9.9052044,4.90909091 8.85308978,5.92630755 8.85308978,7.18097039 C8.85308978,7.3588757 8.87386496,7.53247685 8.91393139,7.6989044 C6.9610642,7.60421286 5.22930431,6.69962176 4.0703459,5.32515978 C3.86852984,5.66016695 3.75204042,6.05041085 3.75204042,6.46719708 C3.75204042,7.25557584 4.16680211,7.9506978 4.7974773,8.35815834 C4.41239445,8.34668058 4.05031269,8.24409808 3.73349115,8.07408374 C3.73274918,8.08340942 3.73274918,8.0927351 3.73274918,8.10277814 C3.73274918,9.20320856 4.54298131,10.1221469 5.61809702,10.3301813 C5.42073278,10.3825486 5.21298096,10.4105256 4.99929336,10.4105256 C4.84718934,10.4105256 4.70027912,10.3961784 4.55707875,10.3696361 C4.85609299,11.2720751 5.72345688,11.929177 6.75182843,11.947111 C5.94753206,12.5568671 4.9347419,12.9198513 3.83365721,12.9198513 C3.64371268,12.9198513 3.45673604,12.9090909 3.27272727,12.8882875 C4.31297036,13.5324768 5.54835176,13.9090909 6.87573755,13.9090909 C11.1977176,13.9090909 13.5616366,10.447111 13.5616366,7.44424155 C13.5616366,7.34596322 13.5594107,7.24768488 13.5549588,7.15012391 C14.0142388,6.8301813 14.4126771,6.42989435 14.7272727,5.97437068 Z" id="icon_twitter"></path>
                        </g>
                    </g>
                </g>
            </g>
        </g>
    </g>
</svg>