<?xml version="1.0" encoding="UTF-8"?>
<svg width="18px" height="18px" viewBox="0 0 18 18" version="1.1" xmlns="http://www.w3.org/2000/svg" xmlns:xlink="http://www.w3.org/1999/xlink">
    <!-- Generator: Sketch 51.1 (57501) - http://www.bohemiancoding.com/sketch -->
    <title>icon_linkedin</title>
    <desc>Created with Sketch.</desc>
    <defs></defs>
    <g id="Symbols" stroke="none" stroke-width="1" fill="none" fill-rule="evenodd">
        <g id="Menu-Global---Desktop-1" transform="translate(-1062.000000, -8.000000)" fill="#791097">
            <g id="Menu">
                <g id="Menu-Superior" transform="translate(548.000000, 5.000000)">
                    <g id="Social" transform="translate(514.000000, 3.000000)">
                        <g id="4">
                            <path d="M4,0 L14,0 C16.209139,-4.05812251e-16 18,1.790861 18,4 L18,14 C18,16.209139 16.209139,18 14,18 L4,18 C1.790861,18 2.705415e-16,16.209139 0,14 L0,4 C-2.705415e-16,1.790861 1.790861,4.05812251e-16 4,0 Z M14.7272727,10.2416691 C14.7272727,8.27742656 13.6696811,7.36363636 12.2586791,7.36363636 C11.1196808,7.36363636 10.6112366,7.98522861 10.3263134,8.42001255 L10.3263134,8.44095272 L10.3122826,8.44095272 C10.3160334,8.4340645 10.3220069,8.42703853 10.3263134,8.42001255 L10.3263134,7.51379938 L8.18181818,7.51379938 C8.21057445,8.11376265 8.18181818,13.9090909 8.18181818,13.9090909 L10.3263134,13.9090909 L10.3263134,10.3374152 C10.3263134,10.1457852 10.3410388,9.95580829 10.39744,9.81914617 C10.5526127,9.43657487 10.9047728,9.0416048 11.497402,9.0416048 C12.2734045,9.0416048 12.5831943,9.62820493 12.5831943,10.4875783 L12.5831943,13.9090909 L14.7272727,13.9090909 L14.7272727,10.2416691 Z M5.32560356,3.27272727 C4.5790474,3.27272727 4.09090909,3.80286503 4.09090909,4.4997705 C4.09090909,5.18168218 4.56519349,5.72727273 5.29690617,5.72727273 L5.31132555,5.72727273 C6.07230108,5.72727273 6.54545455,5.18168218 6.54545455,4.4997705 C6.53117654,3.80286503 6.07230108,3.27272727 5.32560356,3.27272727 Z M4.09090909,13.9090909 L6.54545455,13.9090909 L6.54545455,7.36363636 L4.09090909,7.36363636 L4.09090909,13.9090909 Z" id="icon_linkedin"></path>
                        </g>
                    </g>
                </g>
            </g>
        </g>
    </g>
</svg>