<?xml version="1.0" encoding="UTF-8"?>
<svg width="18px" height="18px" viewBox="0 0 18 18" version="1.1" xmlns="http://www.w3.org/2000/svg" xmlns:xlink="http://www.w3.org/1999/xlink">
    <!-- Generator: Sketch 51.1 (57501) - http://www.bohemiancoding.com/sketch -->
    <title>icon_instagram</title>
    <desc>Created with Sketch.</desc>
    <defs></defs>
    <g id="Symbols" stroke="none" stroke-width="1" fill="none" fill-rule="evenodd">
        <g id="Menu-Global---Desktop-1" transform="translate(-1148.000000, -8.000000)" fill="#791097">
            <g id="Menu">
                <g id="Menu-Superior" transform="translate(548.000000, 5.000000)">
                    <g id="Social" transform="translate(514.000000, 3.000000)">
                        <g id="3" transform="translate(86.000000, 0.000000)">
                            <path d="M4,0 L14,0 C16.209139,-4.05812251e-16 18,1.790861 18,4 L18,14 C18,16.209139 16.209139,18 14,18 L4,18 C1.790861,18 2.705415e-16,16.209139 0,14 L0,4 C-2.705415e-16,1.790861 1.790861,4.05812251e-16 4,0 Z M11.5169048,14.6875186 C13.315342,14.6875186 14.7786088,13.2352189 14.7786088,11.4500616 L14.7786088,6.5498573 C14.7786088,4.76478112 13.315342,3.31248141 11.5169048,3.31248141 L6.58049227,3.31248141 C4.78205505,3.31248141 3.31886985,4.76478112 3.31886985,6.5498573 L3.31886985,11.4500616 C3.31886985,13.2352189 4.78205505,14.6875186 6.58049227,14.6875186 L11.5169048,14.6875186 Z M6.58049227,4.28746375 L11.5169048,4.28746375 C12.7737936,4.28746375 13.7962918,5.3024117 13.7962918,6.5498573 L13.7962918,11.4500616 C13.7962918,12.6975883 12.7737936,13.7126173 11.5169048,13.7126173 L6.58049227,13.7126173 C5.32360344,13.7126173 4.30110519,12.6975883 4.30110519,11.4500616 L4.30110519,6.5498573 C4.30110519,5.3024117 5.32360344,4.28746375 6.58049227,4.28746375 Z M8.92995057,6.94456735 C7.85355065,6.94456735 6.97797528,7.81375839 6.97797528,8.88212892 C6.97797528,9.95049944 7.85355065,10.8196094 8.92995057,10.8196094 C10.0062688,10.8196094 10.8818442,9.95049944 10.8818442,8.88212892 C10.8818442,7.81375839 10.0062688,6.94456735 8.92995057,6.94456735 M8.92995057,11.7946728 C7.31192059,11.7946728 5.99565826,10.48813 5.99565826,8.88212892 C5.99565826,7.27612782 7.31192059,5.96950394 8.92995057,5.96950394 C10.5478172,5.96950394 11.8641612,7.27612782 11.8641612,8.88212892 C11.8641612,10.48813 10.5478172,11.7946728 8.92995057,11.7946728 Z M12.7597437,5.87256535 C12.7597437,6.25925078 12.4440106,6.57249031 12.0545302,6.57249031 C11.6651315,6.57249031 11.3492351,6.25925078 11.3492351,5.87256535 C11.3492351,5.48596097 11.6651315,5.17239718 12.0545302,5.17239718 C12.4440106,5.17239718 12.7597437,5.48596097 12.7597437,5.87256535 Z" id="icon_instagram"></path>
                        </g>
                    </g>
                </g>
            </g>
        </g>
    </g>
</svg>